<?xml version="1.0" encoding="utf-8"?>
<!-- Generator: Adobe Illustrator 16.0.0, SVG Export Plug-In . SVG Version: 6.00 Build 0)  -->
<!DOCTYPE svg PUBLIC "-//W3C//DTD SVG 1.1//EN" "http://www.w3.org/Graphics/SVG/1.1/DTD/svg11.dtd">
<svg version="1.1" id="Layer_1" xmlns="http://www.w3.org/2000/svg" xmlns:xlink="http://www.w3.org/1999/xlink" x="0px" y="0px"
	 width="192.756px" height="46.667px" viewBox="0 0 192.756 46.667" enable-background="new 0 0 192.756 46.667"
	 xml:space="preserve">
<g>
	<polygon fill-rule="evenodd" clip-rule="evenodd" points="158.626,22.979 156.633,28.754 135.87,28.754 144.464,3.728 
		165.227,3.728 163.232,9.503 149.482,9.503 148.313,13.078 159.727,13.078 157.732,18.854 146.251,18.854 144.876,22.979 
		158.626,22.979 	"/>
	<path fill-rule="evenodd" clip-rule="evenodd" d="M95.649,3.728l-8.594,25.026h7.013l6.601-19.251h3.575
		c1.443,0,3.024,0.824,2.474,2.476l-5.774,16.775h7.013l6.051-17.601c0.756-2.201-0.757-7.426-5.844-7.426H95.649L95.649,3.728z"/>
	<path fill-rule="evenodd" clip-rule="evenodd" d="M120.125,3.728l-8.594,25.026h7.013l6.601-19.251h3.574
		c1.445,0,3.025,0.824,2.477,2.476l-5.776,16.775h7.013l6.05-17.601c0.757-2.201-0.755-7.426-5.844-7.426H120.125L120.125,3.728z"/>
	<path fill-rule="evenodd" clip-rule="evenodd" d="M70.761,3.728l-5.156,15.126c-1.925,5.432-1.031,10.244,7.701,10.244
		c8.73,0,10.381-1.857,12.307-7.288l6.256-18.082h-7.081l-5.5,16.02c-0.757,2.2-2.75,3.231-4.606,3.231s-2.957-1.238-2.2-3.781
		l5.294-15.47H70.761L70.761,3.728z"/>
	<polygon fill-rule="evenodd" clip-rule="evenodd" points="26.761,21.328 24.216,28.754 2.835,28.754 6.409,18.372 32.811,3.728 
		29.511,13.49 15.003,21.328 26.761,21.328 	"/>
	<path fill-rule="evenodd" clip-rule="evenodd" d="M47.661,3.728h7.082c3.368-0.068,9.486,1.1,9.486,8.182
		c0,7.081-4.605,12.513-8.594,13.544c0.551,0.412,1.341,2.27,1.135,3.85c-0.206,1.582-0.791,9.076-0.791,9.076
		c-0.068,1.1-0.068,3.23,0.551,3.988h-11l0.893-12.307c0.139-1.375,0-2.82-1.993-2.82h-4.812l1.993-5.912h4.676
		c2.406,0,6.119-0.824,7.287-5.844c0.688-3.025-0.48-5.638-4.125-5.638h-3.85L47.661,3.728L47.661,3.728z"/>
	<polygon fill-rule="evenodd" clip-rule="evenodd" points="21.811,42.367 32.054,42.367 45.323,3.728 35.148,3.728 21.811,42.367 	
		"/>
	<path fill-rule="evenodd" clip-rule="evenodd" d="M173.546,9.503l-6.601,19.251h-7.013l8.595-25.026h14.781
		c2.406,0,5.775,0.344,6.531,4.264c0.651,3.374-2.681,7.493-6.118,8.456c0.688,0.48,1.478,1.993,1.134,3.918l-0.859,5.363
		c-0.068,0.893-0.207,2.27,0.069,3.025h-8.319l1.237-6.875c0-1.582-0.825-3.025-1.993-3.025h-4.676l1.719-4.812h6.325
		c2.337,0,3.094-1.444,3.094-2.338s0-2.2-2.132-2.2H173.546L173.546,9.503z"/>
</g>
</svg>
